<svg width="84" height="48" viewBox="0 0 84 48" fill="none" xmlns="http://www.w3.org/2000/svg">
<path d="M41.968 17.6313C37.1217 15.7216 32.2266 15.9241 30.9852 18.1614C29.7319 20.4166 31.5558 25.7549 35.0023 30.1878C38.4476 34.6172 43.3166 34.473 46.003 29.635C48.6466 24.8102 46.8012 19.535 41.968 17.6313Z" fill="#FF9700"/>
<path d="M17.3217 19.1764C21.6212 22.113 26.4377 23.0017 28.1449 21.0956C29.8663 19.1764 29.2731 13.5677 26.8976 8.48311C24.5233 3.40093 19.7449 2.46216 16.0518 6.58175C12.4051 10.6978 13.0342 16.2481 17.3217 19.1764Z" fill="#006ECD"/>
<path d="M32.7327 34.6349C32.0441 29.4718 29.4851 25.2938 26.9262 25.2974C24.3458 25.2986 20.5693 29.4908 18.3737 34.6576C16.1792 39.822 18.6751 44.0059 24.2088 43.9999C29.7103 43.9618 33.4213 39.7838 32.7327 34.6349Z" fill="#EF151E"/>
<path d="M13.1045 21.2124C12.2277 21.2124 11.6368 21.7533 11.6368 22.5574V23.3675H13.7204C13.7204 23.3675 13.7895 30.2414 13.7109 30.961C13.6323 31.6817 13.4488 32.854 12.161 33.4675C11.0495 33.9977 11.0269 34.4992 10.9566 34.946C10.8648 35.5249 10.9733 35.5976 11.3938 35.4952C13.0485 35.0889 14.8105 34.4254 15.7016 32.7885C16.1853 31.8998 16.3795 30.9384 16.3795 29.4778V23.3663C17.2622 23.3568 17.8984 22.7933 17.8984 22.0213V21.2124H13.1045Z" fill="white"/>
<path d="M10.7886 30.4796C10.7886 30.4796 9.11719 32.8765 5.87202 32.8765C2.52322 32.8765 0 30.3128 0 26.9139C0 23.4686 2.52322 20.8704 5.87202 20.8704C9.05881 20.8704 10.7457 23.2661 10.7457 23.2661C10.7457 23.2661 9.85343 24.2216 8.99687 24.2216C8.57871 24.2216 8.26658 24.0286 7.90561 23.8058C7.42194 23.5068 6.87393 23.1684 5.87202 23.1684C3.96829 23.1684 2.41958 24.8482 2.41958 26.9139C2.41958 28.9356 3.96829 30.5808 5.87202 30.5808C7.00259 30.5808 7.53273 30.2568 8.00092 29.9709C8.33449 29.7672 8.649 29.5754 9.10408 29.5754C10.0691 29.5754 10.7886 30.4796 10.7886 30.4796Z" fill="white"/>
<path d="M83.3927 21.2123V31.3815C83.3891 32.1237 82.8327 32.518 82.0512 32.518H81.0207V25.6286L79.1361 31.7972C78.974 32.2928 78.3641 32.518 77.7482 32.5228H77.2704L74.9414 25.6286V31.3696C74.9414 32.1201 74.391 32.5168 73.6024 32.5168H72.5659V22.3584C72.5659 21.6091 73.1163 21.21 73.9038 21.21H75.6002L78.0496 28.7093L80.2583 21.9236C80.4322 21.4578 80.8921 21.21 81.5175 21.21H83.3927" fill="white"/>
<path d="M57.9398 23.3318C58.5343 23.3318 59.0359 22.8326 59.0359 22.2357V21.2124H51.3101C50.7192 21.2124 50.2141 21.733 50.2141 22.3084V32.524H57.9398C58.5343 32.524 59.0359 31.8771 59.0359 31.2803V30.3903H53.6832C52.7969 30.3903 52.6492 30.824 52.6492 30.824V27.8695H57.6861C58.2805 27.8695 58.7821 27.3692 58.7821 26.7723V25.7382H53.682C52.7957 25.7382 52.648 26.1719 52.648 26.1719V23.3294H57.9398V23.3318Z" fill="white"/>
<path d="M69.074 21.2124C68.5272 21.2124 68.2056 21.7687 68.2056 22.3084V28.2114L62.8994 21.2124H61.8546C61.3078 21.2124 60.8396 21.733 60.8396 22.3084V32.524H62.2001C62.7469 32.524 63.2151 31.9903 63.2151 31.428V24.9484L68.8536 32.5252H69.5672C70.114 32.5252 70.581 32.0034 70.581 31.4292V21.2136H69.074V21.2124Z" fill="white"/>
</svg>
